<?xml version="1.0" encoding="UTF-8" standalone="no"?>
<svg
   xmlns:dc="http://purl.org/dc/elements/1.1/"
   xmlns:cc="http://creativecommons.org/ns#"
   xmlns:rdf="http://www.w3.org/1999/02/22-rdf-syntax-ns#"
   xmlns:svg="http://www.w3.org/2000/svg"
   xmlns="http://www.w3.org/2000/svg"
   viewBox="0 0 816 1056"
   height="56"
   width="56"
   xml:space="preserve"
   id="svg2"
   version="1.1"><metadata
     id="metadata8"><rdf:RDF><cc:Work
         rdf:about=""><dc:format>image/svg+xml</dc:format><dc:type
           rdf:resource="http://purl.org/dc/dcmitype/StillImage" /></cc:Work></rdf:RDF></metadata><defs
     id="defs6"><clipPath
       id="clipPath18"
       clipPathUnits="userSpaceOnUse"><path
         id="path16"
         d="M 0,792 H 612 V 0 H 0 Z" /></clipPath><clipPath
       id="clipPath86"
       clipPathUnits="userSpaceOnUse"><path
         id="path84"
         d="m 212.594,81.315 h 144.21 v 472.513 h -144.21 z" /></clipPath><clipPath
       id="clipPath96"
       clipPathUnits="userSpaceOnUse"><path
         id="path94"
         d="M 0,792 H 612 V 0 H 0 Z" /></clipPath></defs><g
     transform="matrix(1.3333333,0,0,-1.3333333,0,1056)"
     id="g10"><g
       id="g12"><g
         clip-path="url(#clipPath18)"
         id="g14"><g
           transform="translate(357.3098,472.2228)"
           id="g20"><path
             id="path22"
             style="fill:#373737;fill-opacity:1;fill-rule:nonzero;stroke:none"
             d="m 0,0 v 0 c -4.208,0 -7.651,3.443 -7.651,7.651 v 30.872 c 0,4.208 3.443,7.651 7.651,7.651 v 0 c 4.208,0 7.651,-3.443 7.651,-7.651 V 7.651 C 7.651,3.443 4.208,0 0,0" /></g><g
           transform="translate(212.5948,472.2228)"
           id="g24"><path
             id="path26"
             style="fill:#373737;fill-opacity:1;fill-rule:nonzero;stroke:none"
             d="m 0,0 v 0 c -4.208,0 -7.651,3.443 -7.651,7.651 v 30.872 c 0,4.208 3.443,7.651 7.651,7.651 v 0 c 4.208,0 7.651,-3.443 7.651,-7.651 V 7.651 C 7.651,3.443 4.208,0 0,0" /></g><g
           transform="translate(344.3009,597.8372)"
           id="g28"><path
             id="path30"
             style="fill:#373737;fill-opacity:1;fill-rule:nonzero;stroke:none"
             d="m 0,0 v 0 c -4.208,0 -7.651,3.443 -7.651,7.651 v 19.778 c 0,4.208 3.443,7.651 7.651,7.651 v 0 c 4.208,0 7.651,-3.443 7.651,-7.651 V 7.651 C 7.651,3.443 4.208,0 0,0" /></g><g
           transform="translate(224.4188,597.8372)"
           id="g32"><path
             id="path34"
             style="fill:#373737;fill-opacity:1;fill-rule:nonzero;stroke:none"
             d="m 0,0 v 0 c -4.208,0 -7.651,3.443 -7.651,7.651 v 19.778 c 0,4.208 3.443,7.651 7.651,7.651 v 0 c 4.208,0 7.651,-3.443 7.651,-7.651 V 7.651 C 7.651,3.443 4.208,0 0,0" /></g><g
           transform="translate(357.3098,432.7814)"
           id="g36"><path
             id="path38"
             style="fill:#373737;fill-opacity:1;fill-rule:nonzero;stroke:none"
             d="m 0,0 v 0 c -4.208,0 -7.651,3.443 -7.651,7.651 v 30.872 c 0,4.208 3.443,7.651 7.651,7.651 v 0 c 4.208,0 7.651,-3.443 7.651,-7.651 V 7.651 C 7.651,3.443 4.208,0 0,0" /></g><g
           transform="translate(212.5948,432.7814)"
           id="g40"><path
             id="path42"
             style="fill:#373737;fill-opacity:1;fill-rule:nonzero;stroke:none"
             d="m 0,0 v 0 c -4.208,0 -7.651,3.443 -7.651,7.651 v 30.872 c 0,4.208 3.443,7.651 7.651,7.651 v 0 c 4.208,0 7.651,-3.443 7.651,-7.651 V 7.651 C 7.651,3.443 4.208,0 0,0" /></g><g
           transform="translate(357.3098,279.836)"
           id="g44"><path
             id="path46"
             style="fill:#373737;fill-opacity:1;fill-rule:nonzero;stroke:none"
             d="m 0,0 v 0 c -4.208,0 -7.651,3.443 -7.651,7.651 v 30.872 c 0,4.208 3.443,7.651 7.651,7.651 v 0 c 4.208,0 7.651,-3.443 7.651,-7.651 V 7.651 C 7.651,3.443 4.208,0 0,0" /></g><g
           transform="translate(212.5948,279.836)"
           id="g48"><path
             id="path50"
             style="fill:#373737;fill-opacity:1;fill-rule:nonzero;stroke:none"
             d="m 0,0 v 0 c -4.208,0 -7.651,3.443 -7.651,7.651 v 30.872 c 0,4.208 3.443,7.651 7.651,7.651 v 0 c 4.208,0 7.651,-3.443 7.651,-7.651 V 7.651 C 7.651,3.443 4.208,0 0,0" /></g><g
           transform="translate(357.3098,240.3947)"
           id="g52"><path
             id="path54"
             style="fill:#373737;fill-opacity:1;fill-rule:nonzero;stroke:none"
             d="m 0,0 v 0 c -4.208,0 -7.651,3.443 -7.651,7.651 v 30.872 c 0,4.208 3.443,7.651 7.651,7.651 v 0 c 4.208,0 7.651,-3.443 7.651,-7.651 V 7.651 C 7.651,3.443 4.208,0 0,0" /></g><g
           transform="translate(212.5948,240.3947)"
           id="g56"><path
             id="path58"
             style="fill:#373737;fill-opacity:1;fill-rule:nonzero;stroke:none"
             d="m 0,0 v 0 c -4.208,0 -7.651,3.443 -7.651,7.651 v 30.872 c 0,4.208 3.443,7.651 7.651,7.651 v 0 c 4.208,0 7.651,-3.443 7.651,-7.651 V 7.651 C 7.651,3.443 4.208,0 0,0" /></g><g
           transform="translate(357.3098,201.7043)"
           id="g60"><path
             id="path62"
             style="fill:#373737;fill-opacity:1;fill-rule:nonzero;stroke:none"
             d="m 0,0 v 0 c -4.208,0 -7.651,3.443 -7.651,7.651 v 30.872 c 0,4.208 3.443,7.651 7.651,7.651 v 0 c 4.208,0 7.651,-3.443 7.651,-7.651 V 7.651 C 7.651,3.443 4.208,0 0,0" /></g><g
           transform="translate(212.5948,201.7043)"
           id="g64"><path
             id="path66"
             style="fill:#373737;fill-opacity:1;fill-rule:nonzero;stroke:none"
             d="m 0,0 v 0 c -4.208,0 -7.651,3.443 -7.651,7.651 v 30.872 c 0,4.208 3.443,7.651 7.651,7.651 v 0 c 4.208,0 7.651,-3.443 7.651,-7.651 V 7.651 C 7.651,3.443 4.208,0 0,0" /></g><g
           transform="translate(357.3098,162.263)"
           id="g68"><path
             id="path70"
             style="fill:#373737;fill-opacity:1;fill-rule:nonzero;stroke:none"
             d="m 0,0 v 0 c -4.208,0 -7.651,3.443 -7.651,7.651 v 30.872 c 0,4.208 3.443,7.651 7.651,7.651 v 0 c 4.208,0 7.651,-3.443 7.651,-7.651 V 7.651 C 7.651,3.443 4.208,0 0,0" /></g><g
           transform="translate(212.5948,162.263)"
           id="g72"><path
             id="path74"
             style="fill:#373737;fill-opacity:1;fill-rule:nonzero;stroke:none"
             d="m 0,0 v 0 c -4.208,0 -7.651,3.443 -7.651,7.651 v 30.872 c 0,4.208 3.443,7.651 7.651,7.651 v 0 c 4.208,0 7.651,-3.443 7.651,-7.651 V 7.651 C 7.651,3.443 4.208,0 0,0" /></g><path
           id="path76"
           style="fill:#454647;fill-opacity:1;fill-rule:nonzero;stroke:none"
           d="m 329.366,533.94 h -87.243 v 42.502 h 87.243 z" /><path
           id="path78"
           style="fill:#cfcfce;fill-opacity:1;fill-rule:nonzero;stroke:none"
           d="M 356.804,81.315 H 212.595 v 472.513 h 144.209 z" /></g></g><g
       id="g80"><g
         clip-path="url(#clipPath86)"
         id="g82"><path
           id="path88"
           style="fill:#cfcfce;fill-opacity:1;fill-rule:nonzero;stroke:none"
           d="M 421.983,19.337 H 160.739 v 73.494 h 261.244 z" /></g></g><g
       id="g90"><g
         clip-path="url(#clipPath96)"
         id="g92"><path
           id="path98"
           style="fill:#373737;fill-opacity:1;fill-rule:nonzero;stroke:none"
           d="m 310.809,564.208 h -54.633 v 12.234 h 54.633 z" /><g
           transform="translate(349.6586,681.9551)"
           id="g100"><path
             id="path102"
             style="fill:#d1d0d0;fill-opacity:1;fill-rule:nonzero;stroke:none"
             d="M 0,0 V -4.715 C 0,-5.29 -0.47,-5.76 -1.045,-5.76 h -127.837 c -0.575,0 -1.045,0.47 -1.045,1.045 V 0 c 0,0.575 0.47,1.045 1.045,1.045 H -1.045 C -0.47,1.045 0,0.575 0,0" /></g><g
           transform="translate(229.982,659.01)"
           id="g104"><path
             id="path106"
             style="fill:#393939;fill-opacity:1;fill-rule:nonzero;stroke:none"
             d="m 0,0 v 0 c 0,-0.998 -0.816,-1.815 -1.815,-1.815 h -16.871 c -0.998,0 -1.815,0.817 -1.815,1.815 0,0.998 0.817,1.815 1.815,1.815 H -1.815 C -0.816,1.815 0,0.998 0,0" /></g><g
           transform="translate(359.9177,659.01)"
           id="g108"><path
             id="path110"
             style="fill:#393939;fill-opacity:1;fill-rule:nonzero;stroke:none"
             d="m 0,0 v 0 c 0,-0.998 -0.816,-1.815 -1.815,-1.815 h -16.871 c -0.998,0 -1.815,0.817 -1.815,1.815 0,0.998 0.817,1.815 1.815,1.815 H -1.815 C -0.816,1.815 0,0.998 0,0" /></g><path
           id="path112"
           style="fill:#cfcfce;fill-opacity:1;fill-rule:nonzero;stroke:none"
           d="M 348.269,570.998 H 221.131 v 96.02 h 127.138 z" /><path
           id="path114"
           style="fill:#656865;fill-opacity:1;fill-rule:nonzero;stroke:none"
           d="m 316.96,570.998 h -69.574 v 69.574 h 69.574 z" /><path
           id="path116"
           style="fill:#8d9097;fill-opacity:1;fill-rule:nonzero;stroke:none"
           d="M 348.269,659.01 H 221.131 v 22.23 h 127.138 z" /><path
           id="path118"
           style="fill:#606262;fill-opacity:1;fill-rule:nonzero;stroke:none"
           d="M 212.595,90.347 H 357.31 V 81.315 H 212.595 Z" /></g></g></g></svg>